<?xml version="1.0" encoding="utf-8"?>
<!-- Generator: Adobe Illustrator 19.0.0, SVG Export Plug-In . SVG Version: 6.00 Build 0)  -->
<svg version="1.1" id="Group_5_1_" xmlns="http://www.w3.org/2000/svg" xmlns:xlink="http://www.w3.org/1999/xlink" x="0px" y="0px"
	 viewBox="0 0 1024 1024" style="enable-background:new 0 0 1024 1024;" xml:space="preserve">
<style type="text/css">
	.st0{fill:#FFE9D3;}
	.st1{fill-rule:evenodd;clip-rule:evenodd;fill:#25D599;}
	.st2{fill-rule:evenodd;clip-rule:evenodd;fill:#2C75E2;}
	.st3{fill-rule:evenodd;clip-rule:evenodd;fill:#F6993E;}
	.st4{fill-rule:evenodd;clip-rule:evenodd;fill:#142B4A;}
</style>
<g id="Ellipse_1">
	<g>
		<path class="st0" d="M3,513.5C3,778.3,203.4,996.2,460.8,1024h111.5c231.4-25,416.7-203.6,451.8-431.8V434.8
			C986.1,188.5,773.3,0,516.5,0C232.9,0,3,229.9,3,513.5z"/>
	</g>
</g>
<g id="Group_4_1_">
	<g id="Shape_2">
		<g>
			<polygon class="st1" points="779.2,164.9 513.1,164.9 512.2,303.9 776.5,303.9 847.4,233 			"/>
		</g>
	</g>
	<g id="Shape_2_copy">
		<g>
			<polygon class="st2" points="776.5,492.8 510.4,492.8 509.5,631.7 773.8,631.7 844.6,560.9 			"/>
		</g>
	</g>
	<g id="Shape_2_copy_2">
		<g>
			<polygon class="st3" points="484.9,329.3 218.8,329.3 150.6,397.4 221.5,468.2 485.8,468.2 			"/>
		</g>
	</g>
	<g id="Rectangle_2">
		<g>
			<rect x="485.1" y="119.5" class="st4" width="29.6" height="757.6"/>
		</g>
	</g>
</g>
</svg>
